<svg width="700" height="398" viewBox="0 0 700 398" fill="none" xmlns="http://www.w3.org/2000/svg">
<g id="pikatchu">
<g id="Group">
<g id="Group_2">
<path id="Vector" d="M625.3 121.6C611.4 134.9 589.2 152.1 575.2 160.9C559.3 170.9 537.6 184 515 196.2C511.9 197.9 510.7 201.9 512.4 204.9C521.3 220.4 524.7 238.8 528.1 255.2C529.8 263.3 530.9 271.6 531.5 279.9C531.5 279.9 533.9 318.5 536.1 351.8C539.7 355.5 544.8 357.4 551.6 352.1C566.5 340.4 570.6 348.2 570.6 348.2C570.6 348.2 572.7 349.3 574.3 347.1C576 344.9 581.4 343.6 584.9 348.2C588.4 352.9 596.8 348.4 596.8 348.4C596.8 348.4 600.9 347.8 603.7 355.9C605.2 360.2 610.2 362.7 614.5 364C619.1 365.5 622.4 369.6 622.9 374.5C623 375.6 623.1 376.7 623.2 377.8C623.5 382.6 623.8 387.9 622 392.4C621.3 394.3 620.1 395.8 618.2 396.7C617.2 397.2 616.4 397.1 615.3 397.1C614.2 397.1 613.1 397.1 611.9 397.1C604.2 397.2 596.6 397.1 588.9 397.1C584.6 397.1 580.3 397.1 576.1 397.1C571.1 397.1 566.1 397.1 561.1 397.1C555.5 397.1 549.8 397.1 544.2 397.1C538 397.1 531.7 397.1 525.5 397.1C518.8 397.1 512 397.1 505.3 397.1C498.1 397.1 490.9 397.1 483.7 397.1C476.1 397.1 468.6 397.1 461 397.1C453.1 397.1 445.2 397.1 437.4 397.1C429.3 397.1 421.2 397.1 413 397.1C404.7 397.1 396.4 397.1 388.1 397.1C379.7 397.1 371.3 397.1 362.9 397.1C354.5 397.1 346 397.1 337.6 397.1C329.2 397.1 320.8 397.1 312.4 397.1C304.1 397.1 295.8 397.1 287.5 397.1C279.4 397.1 271.2 397.1 263.1 397.1C255.2 397.1 247.3 397.1 239.4 397.1C231.8 397.1 224.2 397.1 216.6 397.1C209.4 397.1 202.1 397.1 194.9 397.1C188.1 397.1 181.3 397.1 174.5 397.1C168.2 397.1 161.9 397.1 155.6 397.1C149.9 397.1 144.2 397.1 138.4 397.1C133.3 397.1 128.2 397.1 123.2 397.1C118.8 397.1 114.5 397.1 110.1 397.1C106.5 397.1 102.9 397.1 99.2999 397.1C94.4999 397.1 89.6999 397.1 84.8999 397.2C82.1999 397.3 79.0999 397 77.2999 394.8C75.9999 393.1 75.2999 391 74.9999 388.9C74.1999 384.1 74.5999 379.1 75.0999 374.3C75.5999 369.5 78.8999 365.3 83.4999 363.8C87.7999 362.4 92.7999 360 94.2999 355.7C97.0999 347.7 101.2 348.2 101.2 348.2C101.2 348.2 109.6 352.7 113.1 348C116.6 343.3 122.1 344.6 123.7 346.9C125.4 349.1 127.4 348 127.4 348C127.4 348 131.5 340.2 146.4 351.9C151.6 356 155.8 355.8 159.1 353.9C165.8 332 167 281.3 168 271.6C170.3 249.4 176.9 224.1 186.6 205.2C186.6 205.2 186.6 205.2 186.6 205.1C188.4 201.6 187.1 197.2 183.6 195.3C161.4 183.2 140.1 170.4 124.5 160.6C110.6 151.8 88.2999 134.6 74.3999 121.3C45.3999 93.6 -10.8001 14.2 2.19989 0.39999C2.19989 0.39999 124.4 -8 242.8 137.4C248.4 144.3 258.2 146.4 266.2 142.5C269 141.1 271.9 139.8 274.7 138.5C294.2 130.1 315.2 125.1 336.4 123.7C360.7 122.1 385.2 125 408.4 132.6C416.8 135.4 425.1 138.8 433 142.7C441 146.7 450.8 144.6 456.5 137.7C575 -8.09999 697.4 0.299999 697.4 0.299999C710.6 14.5 654.3 93.9 625.3 121.6Z" fill="black"/>
<path id="Vector_2" d="M95.4999 364.9C97.4999 351.6 102.5 355.7 105.5 359.8C106.7 361.5 109.3 361.4 110.4 359.6C118.2 346.9 121.1 353.4 121.9 356.4C122.1 357.2 122.7 357.8 123.5 358.1C124.5 358.4 125.5 358.1 126.2 357.3C137.2 343.1 138.9 353.6 139.1 359.9C139.1 361.4 140.8 362.2 142.1 361.4C154.2 353.1 151.3 375.3 151.3 375.3C157.4 376.4 161 383.1 162.8 387.6C163.6 389.6 162.1 391.7 160 391.7H83.7999C73.0999 369.9 95.4999 364.9 95.4999 364.9ZM601.8 364.9C599.8 351.6 594.8 355.7 591.8 359.8C590.6 361.5 588 361.4 586.9 359.6C579.1 346.9 576.2 353.4 575.4 356.4C575.2 357.2 574.6 357.8 573.8 358.1C572.8 358.4 571.8 358.1 571.1 357.3C560.1 343.1 558.4 353.6 558.2 359.9C558.2 361.4 556.5 362.2 555.2 361.4C543.1 353.1 546 375.3 546 375.3C539.9 376.4 536.3 383.1 534.5 387.6C533.7 389.6 535.2 391.7 537.3 391.7H613.5C624.2 369.9 601.8 364.9 601.8 364.9ZM640.1 25.6C636 53.4 626.8 111.6 602.8 131.8C588.5 143.8 570.1 155.7 556.6 164.2C549.1 168.9 542 174.4 534.6 179.2C530.6 181.8 526.4 184.2 522.1 186.3C519.1 187.7 513.1 191.5 509.8 190.6C508.5 190.3 507.4 189.4 506.3 188.6C505.2 187.8 504 187 502.7 186.8C500.4 186.4 499.5 187.8 499 189.7C498.4 192.1 498.8 194.7 500 196.9C513.6 221.3 522.7 248.9 525 276.7C525.9 287.6 524.6 298.4 525.2 309.2C525.8 319.5 526.7 329.8 529.1 339.8C529.7 342.4 530.4 345 531.2 347.5C531.6 348.8 533.4 354.8 530.6 355.5C530.1 355.6 529.6 355.5 529.2 355.4C516.1 351.9 504.5 348.1 491.3 354C482.4 358 478.1 364.6 473 372.7C471.1 375.8 469.4 379 467.9 382.3C467.2 384 466.6 385.7 465.9 387.4C465.8 387.8 465.1 391.9 465.1 391.9C465.1 391.9 439 392 433.5 392C422.7 391.9 411.9 391.9 401.1 391.9C395.2 391.9 389.3 391.8 383.4 391.8L384.2 384.6C384.4 384.6 384.6 384.6 384.9 384.6C392.9 384.6 401.8 381.6 410.1 372.2C410.9 371.3 410.8 369.9 409.9 369C409 368.2 407.6 368.3 406.7 369.2C387.8 390.8 365.6 374.2 363.3 372.4C361.6 370.5 350 358.8 326.1 375.9C319.7 380.5 313.2 382.3 307 381.2C295.9 379.2 288.7 368.8 288.6 368.7C287.9 367.7 286.5 367.4 285.5 368.1C284.5 368.8 284.2 370.2 284.9 371.2C285.2 371.7 293.2 383.3 306.1 385.6C307.6 385.9 309.1 386 310.6 386C311.4 386 312.1 386 312.9 385.9L313.1 391.5C306.2 391.5 299.3 391.4 292.3 391.3C277.6 391.1 263 390.8 248.3 390.6C242.7 390.5 237 390.3 231.5 390.3C231.8 378.8 223.7 366.4 215.2 359.4C204.8 350.8 189.7 349.9 177.1 353C174.2 353.7 166.3 358.4 164.1 355C162.6 352.6 167.4 348.1 168.1 345.9C172.6 331.7 173.4 315.8 174.9 301.1C176.9 281.4 176.1 261.8 179.6 242.3C181.1 234 183.4 225.7 186.8 218C188.5 214.1 190.5 210.3 192.8 206.7C194.7 203.7 197.1 201.1 198.9 198C200.3 195.8 204.5 187 199.1 186.7C194.9 186.5 193.9 190.2 186.7 189.3C177.9 188.2 169.2 182.6 162 177.8C154.8 173.1 148.1 167.8 140.8 163.2C127.3 154.7 104.3 140.7 91.1999 127.4C70.1999 106 55.5999 30.5 59.3999 19.4C59.3999 19.4 128.9 17.6 239.6 148.6C245.2 155.2 254.6 157.2 262.5 153.4C265.1 152.1 267.8 150.9 270.5 149.7C289.4 141.6 319.7 135.6 340.2 134.3C363.7 132.7 387.4 135.6 409.8 143C418 145.7 430.4 151.2 438.1 155C445.9 158.9 456.5 152.4 461.9 145.7C540.1 48.2 607.5 24.2 632.5 18.9C637.4 17.6 640.8 20.7 640.1 25.6ZM280.1 298.6C280.1 279.3 264.4 263.6 245.1 263.6C225.8 263.6 210.1 279.3 210.1 298.6C210.1 317.9 225.8 333.6 245.1 333.6C264.4 333.5 280.1 317.9 280.1 298.6ZM356.3 319H348.1H339.9C335.9 319 333.5 323.4 335.6 326.7L339.4 332.8C343.7 338.6 352.4 338.6 356.7 332.8L360.5 326.7C362.7 323.4 360.3 319 356.3 319ZM487.6 298.6C487.6 279.3 471.9 263.6 452.6 263.6C433.3 263.6 417.6 279.3 417.6 298.6C417.6 317.9 433.3 333.6 452.6 333.6C472 333.5 487.6 317.9 487.6 298.6Z" fill="#FCD20B"/>
<path id="Vector_3" d="M171.6 391.5C171.6 391.5 159.5 381.8 160.8 368.2C160.8 368.2 208.3 335.3 224.3 391.6L171.6 391.5ZM524.9 391.5C524.9 391.5 537 381.8 535.7 368.2C535.7 368.2 488.2 335.3 472.2 391.6L524.9 391.5ZM379.5 392.5L379.7 387.6C379.8 385.8 378.6 384.3 376.9 383.9C372.9 383.1 365.9 381 362.2 376.2C356.8 369.3 341.9 368.4 334.2 376.6C329.5 381.7 324.1 383.3 320.6 383.8C318.5 384.1 317 385.9 317 388V392.2L379.5 392.5Z" fill="#ED1C24"/>
<path id="Vector_4" d="M269.7 287.1C269.7 296 262.5 303.1 253.7 303.1C244.8 303.1 237.7 295.9 237.7 287.1C237.7 278.2 244.9 271.1 253.7 271.1C262.5 271.1 269.7 278.3 269.7 287.1ZM443.1 271.1C434.2 271.1 427.1 278.3 427.1 287.1C427.1 296 434.3 303.1 443.1 303.1C452 303.1 459.1 295.9 459.1 287.1C459.1 278.3 451.9 271.1 443.1 271.1Z" fill="white"/>
<path id="Vector_5" d="M267.5 306.6C267.5 307 267.6 307.5 267.6 307.9C267.6 319.3 258.4 328.5 247 328.5C236.5 328.5 227.9 320.7 226.6 310.6C232 312.1 238.7 312.8 245.8 312.3C254.3 311.7 262 309.6 267.5 306.6ZM429.2 306.6C429.2 307 429.1 307.5 429.1 307.9C429.1 319.3 438.3 328.5 449.7 328.5C460.2 328.5 468.8 320.7 470.1 310.6C464.7 312.1 458 312.8 450.9 312.3C442.4 311.7 434.7 309.6 429.2 306.6Z" fill="#765241"/>
</g>
</g>
</g>
</svg>
